<svg xmlns="http://www.w3.org/2000/svg" width="82" height="29" viewBox="0 0 82 29" fill="none">
  <path fill-rule="evenodd" clip-rule="evenodd" d="M12.972 7.42289C14.9962 7.42289 16.6371 5.78198 16.6371 3.75783C16.6371 1.73367 14.9962 0.0927734 12.972 0.0927734C10.9479 0.0927734 9.30697 1.73367 9.30697 3.75783C9.30697 5.78198 10.9479 7.42289 12.972 7.42289ZM13.7793 19.1158C13.3296 18.8555 12.7752 18.8556 12.3256 19.116L5.63202 22.9934C5.06371 23.3556 4.38889 23.5654 3.66506 23.5654C1.6409 23.5654 0 21.9245 0 19.9003C0 18.5032 0.781802 17.2886 1.93181 16.6702L3.57431 15.7195C4.53943 15.1608 4.53943 13.7675 3.57431 13.2088L1.94953 12.2684C0.789844 11.653 0 10.4331 0 9.02876C0 7.0046 1.6409 5.3637 3.66506 5.3637C4.38276 5.3637 5.05229 5.57 5.61757 5.92653L12.3256 9.81231C12.7752 10.0727 13.3296 10.0728 13.7793 9.81255L20.4692 5.94021C20.5615 5.88109 20.6567 5.82599 20.7544 5.77516L20.7548 5.77492C20.7548 5.77491 20.7548 5.77491 20.7548 5.77492C20.7548 5.77493 20.7548 5.77493 20.7548 5.77492C21.2601 5.51214 21.8344 5.36363 22.4434 5.36363C24.4675 5.36363 26.1084 7.00453 26.1084 9.02869C26.1084 10.4737 25.2722 11.7233 24.0573 12.3202L22.5228 13.2091C21.5582 13.7678 21.5582 15.1605 22.5228 15.7192L24.0603 16.6099C25.2736 17.2073 26.1084 18.4561 26.1084 19.8999C26.1084 21.924 24.4675 23.5649 22.4434 23.5649C21.7147 23.5649 21.0357 23.3523 20.465 22.9857L13.7793 19.1158ZM16.6371 25.3352C16.6371 27.3593 14.9962 29.0002 12.972 29.0002C10.9479 29.0002 9.30697 27.3593 9.30697 25.3352C9.30697 23.311 10.9479 21.6701 12.972 21.6701C14.9962 21.6701 16.6371 23.311 16.6371 25.3352Z" fill="#3B82F6"/>
  <path d="M37.0608 17.1418C35.4597 17.1418 34.3794 16.0422 34.3794 14.3832C34.3794 12.7434 35.4597 11.6053 37.0608 11.6053C38.1797 11.6053 39.0864 12.1647 39.4336 13.5151L41.8836 12.8206C41.247 10.66 39.2986 9.27106 37.0608 9.27106C34.2444 9.27106 31.9102 11.3545 31.9102 14.3832C31.9102 17.4118 34.2444 19.476 37.0608 19.476C39.3565 19.476 41.3434 18.0677 41.8836 15.8686L39.5301 15.2705C39.0864 16.6016 38.1797 17.1418 37.0608 17.1418Z" fill="#1E3A8A"/>
  <path d="M51.6477 9.56042H49.1013V13.8237C49.1013 16.1772 48.156 17.1418 46.7092 17.1418C45.5324 17.1418 44.7608 16.2351 44.7608 14.8847V9.56042H42.2144V15.4249C42.2144 17.817 43.7577 19.476 46.0726 19.476C47.3458 19.476 48.3489 19.0709 49.1013 18.3185V19.1866H51.6477V9.56042Z" fill="#1E3A8A"/>
  <path d="M62.6862 5.29712H60.1398V10.3321C59.3295 9.65688 58.2685 9.27106 56.9568 9.27106C54.5068 9.27106 52.2305 11.3545 52.2305 14.3832C52.2305 17.4118 54.5068 19.476 56.9568 19.476C58.2685 19.476 59.3295 19.0902 60.1398 18.4343V19.1866H62.6862V5.29712ZM57.4004 17.2575C55.8572 17.2575 54.6997 16.1579 54.6997 14.3832C54.6997 12.6084 55.8572 11.4895 57.4004 11.4895C58.7701 11.4895 60.1398 12.6084 60.1398 14.3832C60.1398 16.1579 58.7701 17.2575 57.4004 17.2575Z" fill="#1E3A8A"/>
  <path d="M68.5043 9.32893C65.63 9.32893 63.2572 11.3545 63.2572 14.3832C63.2572 17.4118 65.63 19.4374 68.5043 19.4374C71.3208 19.4374 73.6936 17.4118 73.6936 14.3832C73.6936 11.3545 71.3208 9.32893 68.5043 9.32893ZM68.5043 17.2575C67.1154 17.2575 65.7265 16.1772 65.7265 14.3832C65.7265 12.5891 67.1154 11.5088 68.5043 11.5088C69.8354 11.5088 71.2244 12.5891 71.2244 14.3832C71.2244 16.1772 69.8354 17.2575 68.5043 17.2575Z" fill="#1E3A8A"/>
  <path d="M73.4541 16.6402C73.7049 18.6465 75.6533 19.476 77.7753 19.476C80.2831 19.476 82 18.3764 82 16.2544C82 14.9619 81.1705 13.9009 79.4729 13.5344L77.1773 13.0328C76.4249 12.8592 76.3092 12.5312 76.3092 12.2226C76.3092 11.7789 76.5986 11.2773 77.621 11.2773C78.682 11.2773 79.3572 11.8368 79.4536 12.6084L81.8843 12.1261C81.5563 10.4478 79.9745 9.27106 77.6981 9.27106C75.2675 9.27106 73.7628 10.6021 73.7628 12.4541C73.7628 13.843 74.7466 14.8269 76.4828 15.1934L78.4505 15.5985C79.28 15.7721 79.5115 16.1193 79.5115 16.4666C79.5115 17.0067 78.9521 17.4311 78.0068 17.4311C77.0037 17.4311 76.1549 17.1032 76.0198 16.1193L73.4541 16.6402Z" fill="#1E3A8A"/>
</svg>