<svg width="27" height="29" viewBox="0 0 27 29" fill="none" xmlns="http://www.w3.org/2000/svg">
<path fill-rule="evenodd" clip-rule="evenodd" d="M12.972 7.33011C14.9962 7.33011 16.6371 5.68921 16.6371 3.66506C16.6371 1.6409 14.9962 0 12.972 0C10.9479 0 9.30697 1.6409 9.30697 3.66506C9.30697 5.68921 10.9479 7.33011 12.972 7.33011ZM13.7793 19.023C13.3296 18.7627 12.7752 18.7628 12.3256 19.0232L5.63202 22.9006C5.06371 23.2628 4.38889 23.4726 3.66506 23.4726C1.6409 23.4726 0 21.8317 0 19.8076C0 18.4104 0.781802 17.1958 1.93181 16.5774L3.57431 15.6267C4.53943 15.0681 4.53943 13.6747 3.57431 13.1161L1.94953 12.1756C0.789844 11.5602 0 10.3403 0 8.93599C0 6.91183 1.6409 5.27093 3.66506 5.27093C4.38276 5.27093 5.05229 5.47723 5.61757 5.83376L12.3256 9.71953C12.7752 9.97994 13.3296 9.98003 13.7793 9.71977L20.4692 5.84744C20.5615 5.78831 20.6567 5.73321 20.7544 5.68239L20.7548 5.68214C20.7548 5.68214 20.7548 5.68214 20.7548 5.68215V5.68215C20.7548 5.68215 20.7548 5.68215 20.7548 5.68215C21.2601 5.41937 21.8344 5.27086 22.4434 5.27086C24.4675 5.27086 26.1084 6.91176 26.1084 8.93592C26.1084 10.3809 25.2722 11.6305 24.0573 12.2274L22.5228 13.1163C21.5582 13.675 21.5582 15.0677 22.5228 15.6265L24.0603 16.5171C25.2736 17.1145 26.1084 18.3633 26.1084 19.8071C26.1084 21.8313 24.4675 23.4722 22.4434 23.4722C21.7147 23.4722 21.0357 23.2595 20.465 22.8929L13.7793 19.023ZM16.6371 25.2424C16.6371 27.2666 14.9962 28.9075 12.972 28.9075C10.9479 28.9075 9.30697 27.2666 9.30697 25.2424C9.30697 23.2183 10.9479 21.5774 12.972 21.5774C14.9962 21.5774 16.6371 23.2183 16.6371 25.2424Z" fill="#3B82F6"/>
</svg>
